PathFileType	4	(X/Y/Z)	1H_rest_med_right.trc
DataRate	CameraRate	NumFrames	NumMarkers	Units	OrigDataRate	OrigDataStartFrame	OrigNumFrames
250.00	250.00	16	18	mm	250.00	18301	29281
Frame#	Time	c7	r_should	l_should	clavicle	r_upa	r_elb_l	r_elb_m	r_low	r_wri_l	r_wri_m	r_met	l_upa	l_elb_l	l_elb_m	l_low	l_wri_l	l_wri_m	l_met
	X1	Y1	Z1	X2	Y2	Z2	X3	Y3	Z3	X4	Y4	Z4	X5	Y5	Z5	X6	Y6	Z6	X7	Y7	Z7	X8	Y8	Z8	X9	Y9	Z9	X10	Y10	Z10	X11	Y11	Z11	X12	Y12	Z12	X13	Y13	Z13	X14	Y14	Z14	X15	Y15	Z15	X16	Y16	Z16	X17	Y17	Z17	X18	Y18	Z18
18301	73.20000	640.15143	1419.77319	283.34058	714.92639	1355.67542	421.63712	667.81006	1377.89612	105.53654	766.01447	1280.99609	247.59277	728.64868	1144.39722	476.39334	733.22833	1052.56726	493.79929	686.38385	1016.33868	417.56766	775.33167	867.46942	490.83585	796.69318	799.38483	469.08002	726.26208	783.19604	489.01346	824.50519	723.53363	507.01886	653.21320	1190.16980	24.59805	663.38721	1082.08179	10.96464	613.50592	1045.17603	75.05523	700.62933	916.84894	9.58172	728.90326	843.36279	42.05508	663.72766	824.69849	13.63483	756.68762	757.02380	12.27790
18302	73.20400	640.13983	1419.75757	283.35995	714.93024	1355.65271	421.64914	667.77948	1377.89001	105.55651	766.00421	1280.99878	247.59608	728.65582	1144.37793	476.42456	733.24158	1052.56006	493.81543	686.39832	1016.33105	417.58456	775.33862	867.45612	490.80679	796.69501	799.37195	469.04175	726.27332	783.18542	489.02054	824.53345	723.53461	506.98627	653.18317	1190.18384	24.62242	663.34216	1082.08374	10.95879	613.49811	1045.18774	75.08466	700.59265	916.85406	9.56871	728.89435	843.37653	42.04957	663.71094	824.71075	13.66542	756.65198	757.02985	12.24796
18303	73.20800	640.13293	1419.75049	283.38992	714.93817	1355.63306	421.66003	667.76202	1377.88037	105.57751	765.99390	1280.99255	247.59605	728.67120	1144.35376	476.45514	733.26544	1052.56433	493.83481	686.41937	1016.33038	417.61795	775.34161	867.43231	490.78067	796.70276	799.35406	469.00375	726.29425	783.19690	489.03937	824.58197	723.53748	506.96362	653.17700	1190.20886	24.64934	663.30957	1082.08533	10.95573	613.51801	1045.21057	75.12702	700.56317	916.85522	9.55718	728.90234	843.40070	42.05877	663.71442	824.74371	13.69525	756.62323	757.03223	12.22648
18304	73.21200	640.12927	1419.75110	283.41568	714.95410	1355.61658	421.66995	667.74823	1377.87732	105.59700	765.98950	1280.98389	247.60312	728.69812	1144.34167	476.46878	733.29718	1052.56226	493.84375	686.44128	1016.33765	417.63049	775.34723	867.41132	490.75912	796.71234	799.33215	468.96457	726.31708	783.21362	489.05630	824.62811	723.54144	506.94012	653.18433	1190.24463	24.67055	663.28986	1082.09692	10.95266	613.55212	1045.23743	75.15486	700.54388	916.86316	9.54777	728.91125	843.42596	42.06717	663.72455	824.79156	13.70583	756.59955	757.04010	12.20784
18305	73.21600	640.12360	1419.75427	283.43607	714.96021	1355.60730	421.68231	667.73334	1377.89429	105.60999	765.98462	1280.98535	247.61461	728.72339	1144.34094	476.45966	733.32159	1052.56226	493.83438	686.46204	1016.33594	417.62012	775.35229	867.39697	490.73685	796.71655	799.31451	468.93216	726.33167	783.22217	489.03891	824.65143	723.54639	506.89221	653.17700	1190.27539	24.67174	663.27979	1082.12341	10.94757	613.56134	1045.26062	75.15820	700.52954	916.88763	9.53975	728.90094	843.45233	42.05502	663.71368	824.83130	13.68691	756.58240	757.05267	12.19068
18306	73.22000	640.11554	1419.76782	283.44846	714.96082	1355.60864	421.69104	667.72089	1377.91406	105.61909	765.97968	1280.98987	247.61583	728.73877	1144.33533	476.42105	733.32452	1052.55029	493.80872	686.47736	1016.32739	417.58316	775.35675	867.38458	490.70966	796.71667	799.30243	468.89359	726.33569	783.21576	488.98178	824.65179	723.53278	506.82169	653.14117	1190.29126	24.65581	663.26550	1082.15149	10.93532	613.54272	1045.28052	75.13358	700.51343	916.91010	9.52735	728.86987	843.46759	42.01746	663.68610	824.85547	13.63910	756.55945	757.07111	12.17443
18307	73.22400	640.10474	1419.77844	283.45511	714.96558	1355.60229	421.69257	667.70844	1377.93225	105.62407	765.97192	1280.98840	247.62012	728.74182	1144.31409	476.36111	733.31140	1052.51196	493.76624	686.46088	1016.30902	417.53787	775.36060	867.37646	490.68207	796.71472	799.28833	468.85425	726.33057	783.18854	488.91263	824.63776	723.49963	506.74237	653.08508	1190.28540	24.63727	663.24829	1082.16614	10.92649	613.49664	1045.27490	75.08725	700.49530	916.91779	9.51813	728.81952	843.45709	41.97394	663.63818	824.85388	13.57512	756.53394	757.08002	12.16099
18308	73.22800	640.09473	1419.77686	283.46234	714.95630	1355.59595	421.69241	667.69196	1377.94031	105.63641	765.96198	1280.98486	247.62376	728.74164	1144.27991	476.29813	733.29150	1052.46350	493.72333	686.42999	1016.26965	417.49701	775.36060	867.35651	490.65720	796.71381	799.26538	468.82260	726.31488	783.14697	488.85049	824.61646	723.45648	506.67197	653.02838	1190.26184	24.62807	663.22681	1082.16772	10.92441	613.43683	1045.26038	75.04134	700.47247	916.91864	9.50663	728.76599	843.43280	41.93910	663.57831	824.83716	13.52273	756.50354	757.07898	12.14762
18309	73.23200	640.07819	1419.76965	283.47150	714.94440	1355.57788	421.70023	667.66992	1377.93726	105.65182	765.95233	1280.98389	247.63121	728.74280	1144.24634	476.25616	733.27612	1052.42432	493.69730	686.42499	1016.24225	417.45642	775.35999	867.33630	490.62799	796.70953	799.24176	468.78082	726.29675	783.10443	488.80316	824.59924	723.42578	506.61807	652.98163	1190.25098	24.62602	663.20172	1082.16504	10.91859	613.38910	1045.24976	75.01949	700.44385	916.92102	9.49651	728.72705	843.41980	41.91246	663.52985	824.82141	13.49230	756.47064	757.07520	12.13702
18310	73.23600	640.06335	1419.75879	283.48727	714.93573	1355.55945	421.70822	667.64581	1377.93677	105.66199	765.94464	1280.98328	247.63408	728.74323	1144.22046	476.25650	733.27838	1052.40759	493.69199	686.41730	1016.23737	417.45175	775.35413	867.32062	490.59995	796.70233	799.22424	468.74054	726.28302	783.07953	488.78748	824.59662	723.41223	506.58060	652.96149	1190.25891	24.62861	663.17657	1082.16602	10.91145	613.36774	1045.25598	75.02593	700.41565	916.92102	9.48827	728.70734	843.42505	41.90390	663.50940	824.82495	13.48778	756.43872	757.07544	12.12748
18311	73.24000	640.04865	1419.75061	283.49866	714.92798	1355.54016	421.71356	667.62329	1377.93567	105.67258	765.93140	1280.97778	247.63036	728.75354	1144.21094	476.28653	733.29456	1052.41394	493.69873	686.42798	1016.24487	417.46475	775.34595	867.29895	490.56854	796.68988	799.20782	468.70581	726.27917	783.08020	488.80106	824.61285	723.41779	506.55948	652.96185	1190.28137	24.64515	663.15637	1082.16614	10.91323	613.38019	1045.27563	75.04938	700.38568	916.91864	9.47899	728.70166	843.44678	41.91200	663.50226	824.85468	13.51071	756.40570	757.07263	12.11861
18312	73.24400	640.04144	1419.74622	283.51959	714.92206	1355.52356	421.72232	667.61261	1377.93188	105.68932	765.91394	1280.97253	247.63040	728.76355	1144.20483	476.31415	733.31567	1052.42542	493.71463	686.43994	1016.25336	417.48877	775.33673	867.27478	490.54010	796.67535	799.18469	468.67270	726.28082	783.09772	488.82602	824.63770	723.42841	506.54803	652.97784	1190.31018	24.67005	663.13434	1082.16931	10.91699	613.40790	1045.30566	75.07490	700.36255	916.91724	9.47263	728.70892	843.47229	41.92766	663.50653	824.90295	13.53492	756.37775	757.06995	12.11359
18313	73.24800	640.03729	1419.74670	283.54202	714.92273	1355.50903	421.73166	667.60992	1377.93420	105.70506	765.90314	1280.96680	247.63100	728.77490	1144.19958	476.31903	733.32977	1052.42957	493.71768	686.45605	1016.25226	417.49301	775.32599	867.25354	490.51788	796.65784	799.15894	468.64163	726.28296	783.10822	488.83554	824.65491	723.43304	506.53421	652.99420	1190.34143	24.68449	663.11865	1082.17932	10.91335	613.43665	1045.33533	75.09843	700.35187	916.92542	9.46891	728.71387	843.49652	41.93355	663.51056	824.94055	13.53775	756.35938	757.07214	12.10631
18314	73.25200	640.03888	1419.75415	283.55911	714.92645	1355.50269	421.74130	667.60352	1377.94348	105.71918	765.89386	1280.96130	247.63457	728.78839	1144.19556	476.30069	733.33398	1052.41760	493.70468	686.46112	1016.25061	417.46732	775.31683	867.23431	490.49051	796.64783	799.13269	468.60236	726.27997	783.10266	488.80563	824.65198	723.42218	506.49594	653.00085	1190.35938	24.68075	663.11572	1082.19727	10.90734	613.44604	1045.34570	75.09856	700.35034	916.94098	9.46058	728.70135	843.51025	41.91640	663.50446	824.96655	13.51078	756.34442	757.08270	12.09262
18315	73.25600	640.03906	1419.76392	283.56390	714.93994	1355.49976	421.73862	667.60199	1377.95325	105.72228	765.89282	1280.96313	247.63885	728.79730	1144.17859	476.26776	733.32654	1052.38855	493.66974	686.45245	1016.23438	417.42264	775.31171	867.21704	490.46045	796.64020	799.11127	468.56201	726.26447	783.07587	488.74310	824.63086	723.38800	506.43802	652.98419	1190.35388	24.66461	663.11725	1082.20593	10.89899	613.42047	1045.34009	75.05803	700.34302	916.95319	9.44363	728.67096	843.50171	41.88465	663.47809	824.97296	13.45640	756.33588	757.09387	12.07578
18316	73.26000	640.03644	1419.77148	283.56238	714.94830	1355.49524	421.73660	667.60004	1377.95801	105.72398	765.89532	1280.96606	247.63441	728.78986	1144.14709	476.21039	733.30988	1052.34167	493.62173	686.43085	1016.19910	417.37006	775.30981	867.19946	490.42978	796.63605	799.10150	468.52350	726.24756	783.03473	488.67059	824.60541	723.33881	506.37125	652.95453	1190.33264	24.63717	663.11334	1082.20825	10.89412	613.37183	1045.32300	75.01312	700.33508	916.95715	9.42933	728.63330	843.47986	41.85505	663.43457	824.95105	13.39994	756.32739	757.10187	12.05910
